{
	"asset":{
		"generator":"Khronos glTF Blender I/O v4.3.47",
		"version":"2.0"
	},
	"scene":0,
	"scenes":[
		{
			"name":"Scene",
			"nodes":[
				0,
				1,
				2,
				3
			]
		}
	],
	"nodes":[
		{
			"mesh":0,
			"name":"MineDemo",
			"rotation":[
				-0.7071068286895752,
				0,
				0.7071068286895752,
				3.090862321641907e-08
			],
			"translation":[
				-360,
				28,
				101.19999694824219
			]
		},
		{
			"mesh":1,
			"name":"Text - LoopX",
			"rotation":[
				0.5,
				0.5,
				-0.5,
				0.5
			],
			"scale":[
				0.30000001192092896,
				0.30000001192092896,
				0.30000001192092896
			],
			"translation":[
				1.2689170837402344,
				10.027626037597656,
				19.394800186157227
			]
		},
		{
			"mesh":2,
			"name":"Text - 3D Digital Mine",
			"rotation":[
				0.5,
				0.5,
				-0.5,
				0.5
			],
			"scale":[
				0.20000000298023224,
				0.20000000298023224,
				0.20000000298023224
			],
			"translation":[
				1.1977195739746094,
				7.5922346115112305,
				22.009553909301758
			]
		},
		{
			"mesh":3,
			"name":"LoopX.svg",
			"rotation":[
				0,
				0.7071068286895752,
				0,
				0.7071068286895752
			],
			"scale":[
				9.03632640838623,
				2.2590816020965576,
				1.1252764463424683
			],
			"translation":[
				1.5510149002075195,
				10.447413444519043,
				18.501497268676758
			]
		}
	],
	"meshes":[
		{
			"name":"MineDemo.002",
			"primitives":[
				{
					"attributes":{
						"POSITION":0,
						"NORMAL":1
					},
					"indices":2
				}
			]
		},
		{
			"name":"LoopX",
			"primitives":[
				{
					"attributes":{
						"POSITION":3,
						"NORMAL":4,
						"TEXCOORD_0":5
					},
					"indices":6
				}
			]
		},
		{
			"name":"3D Digital Mine",
			"primitives":[
				{
					"attributes":{
						"POSITION":7,
						"NORMAL":8,
						"TEXCOORD_0":9
					},
					"indices":10
				}
			]
		},
		{
			"name":"LoopX.svg",
			"primitives":[
				{
					"attributes":{
						"POSITION":11,
						"NORMAL":12,
						"COLOR_0":13,
						"COLOR_1":14
					},
					"indices":15
				}
			]
		}
	],
	"accessors":[
		{
			"bufferView":0,
			"componentType":5126,
			"count":196856,
			"max":[
				288.9767150878906,
				370.7576904296875,
				-3.6328128771856427e-07
			],
			"min":[
				0,
				-4.7460940777455107e-07,
				-427.48089599609375
			],
			"type":"VEC3"
		},
		{
			"bufferView":1,
			"componentType":5126,
			"count":196856,
			"type":"VEC3"
		},
		{
			"bufferView":2,
			"componentType":5125,
			"count":196968,
			"type":"SCALAR"
		},
		{
			"bufferView":3,
			"componentType":5126,
			"count":2372,
			"max":[
				23.51679801940918,
				1,
				1.522516131401062
			],
			"min":[
				0.14295926690101624,
				-1,
				-4.867763042449951
			],
			"type":"VEC3"
		},
		{
			"bufferView":4,
			"componentType":5126,
			"count":2372,
			"type":"VEC3"
		},
		{
			"bufferView":5,
			"componentType":5126,
			"count":2372,
			"type":"VEC2"
		},
		{
			"bufferView":6,
			"componentType":5123,
			"count":7044,
			"type":"SCALAR"
		},
		{
			"bufferView":7,
			"componentType":5126,
			"count":7980,
			"max":[
				57.955684661865234,
				1,
				1.7726948261260986
			],
			"min":[
				0.26447463035583496,
				-1,
				-5.218012809753418
			],
			"type":"VEC3"
		},
		{
			"bufferView":8,
			"componentType":5126,
			"count":7980,
			"type":"VEC3"
		},
		{
			"bufferView":9,
			"componentType":5126,
			"count":7980,
			"type":"VEC2"
		},
		{
			"bufferView":10,
			"componentType":5123,
			"count":23688,
			"type":"SCALAR"
		},
		{
			"bufferView":11,
			"componentType":5126,
			"count":3768,
			"max":[
				-0.15134994685649872,
				0.37776505947113037,
				7.466383955545552e-09
			],
			"min":[
				-0.37992238998413086,
				-0.17081095278263092,
				-0.5
			],
			"type":"VEC3"
		},
		{
			"bufferView":12,
			"componentType":5126,
			"count":3768,
			"type":"VEC3"
		},
		{
			"bufferView":13,
			"componentType":5123,
			"count":3768,
			"normalized":true,
			"type":"VEC4"
		},
		{
			"bufferView":14,
			"componentType":5123,
			"count":3768,
			"normalized":true,
			"type":"VEC4"
		},
		{
			"bufferView":15,
			"componentType":5123,
			"count":7752,
			"type":"SCALAR"
		}
	],
	"bufferViews":[
		{
			"buffer":0,
			"byteLength":2362272,
			"byteOffset":0,
			"target":34962
		},
		{
			"buffer":0,
			"byteLength":2362272,
			"byteOffset":2362272,
			"target":34962
		},
		{
			"buffer":0,
			"byteLength":787872,
			"byteOffset":4724544,
			"target":34963
		},
		{
			"buffer":0,
			"byteLength":28464,
			"byteOffset":5512416,
			"target":34962
		},
		{
			"buffer":0,
			"byteLength":28464,
			"byteOffset":5540880,
			"target":34962
		},
		{
			"buffer":0,
			"byteLength":18976,
			"byteOffset":5569344,
			"target":34962
		},
		{
			"buffer":0,
			"byteLength":14088,
			"byteOffset":5588320,
			"target":34963
		},
		{
			"buffer":0,
			"byteLength":95760,
			"byteOffset":5602408,
			"target":34962
		},
		{
			"buffer":0,
			"byteLength":95760,
			"byteOffset":5698168,
			"target":34962
		},
		{
			"buffer":0,
			"byteLength":63840,
			"byteOffset":5793928,
			"target":34962
		},
		{
			"buffer":0,
			"byteLength":47376,
			"byteOffset":5857768,
			"target":34963
		},
		{
			"buffer":0,
			"byteLength":45216,
			"byteOffset":5905144,
			"target":34962
		},
		{
			"buffer":0,
			"byteLength":45216,
			"byteOffset":5950360,
			"target":34962
		},
		{
			"buffer":0,
			"byteLength":30144,
			"byteOffset":5995576,
			"target":34962
		},
		{
			"buffer":0,
			"byteLength":30144,
			"byteOffset":6025720,
			"target":34962
		},
		{
			"buffer":0,
			"byteLength":15504,
			"byteOffset":6055864,
			"target":34963
		}
	],
	"buffers":[
		{
			"byteLength":6071368,
			"uri":"MineDemo.bin"
		}
	]
}
