{
	"asset":{
		"generator":"Khronos glTF Blender I/O v4.3.47",
		"version":"2.0"
	},
	"scene":0,
	"scenes":[
		{
			"name":"Scene",
			"nodes":[
				0,
				1,
				2,
				3
			]
		}
	],
	"nodes":[
		{
			"mesh":0,
			"name":"Text - LoopX",
			"rotation":[
				0.5,
				0.5,
				-0.5,
				0.5
			],
			"scale":[
				0.30000001192092896,
				0.30000001192092896,
				0.30000001192092896
			],
			"translation":[
				1.2689170837402344,
				10.027626037597656,
				19.394800186157227
			]
		},
		{
			"mesh":1,
			"name":"Text - 3D Digital Mine",
			"rotation":[
				0.5,
				0.5,
				-0.5,
				0.5
			],
			"scale":[
				0.20000000298023224,
				0.20000000298023224,
				0.20000000298023224
			],
			"translation":[
				1.1977195739746094,
				7.5922346115112305,
				22.009553909301758
			]
		},
		{
			"mesh":2,
			"name":"LoopX.svg",
			"rotation":[
				0,
				0.7071068286895752,
				0,
				0.7071068286895752
			],
			"scale":[
				9.03632640838623,
				2.2590816020965576,
				1.1252764463424683
			],
			"translation":[
				1.5510149002075195,
				10.447413444519043,
				18.501497268676758
			]
		},
		{
			"mesh":3,
			"name":"NorcatMine_HDmesh",
			"translation":[
				-2810,
				-4000,
				7060
			]
		}
	],
	"meshes":[
		{
			"name":"LoopX",
			"primitives":[
				{
					"attributes":{
						"POSITION":0,
						"NORMAL":1,
						"TEXCOORD_0":2
					},
					"indices":3
				}
			]
		},
		{
			"name":"3D Digital Mine",
			"primitives":[
				{
					"attributes":{
						"POSITION":4,
						"NORMAL":5,
						"TEXCOORD_0":6
					},
					"indices":7
				}
			]
		},
		{
			"name":"LoopX.svg",
			"primitives":[
				{
					"attributes":{
						"POSITION":8,
						"NORMAL":9,
						"COLOR_0":10,
						"COLOR_1":11
					},
					"indices":12
				}
			]
		},
		{
			"name":"NorcatMine_HDmesh",
			"primitives":[
				{
					"attributes":{
						"POSITION":13,
						"NORMAL":14
					},
					"indices":15
				}
			]
		}
	],
	"accessors":[
		{
			"bufferView":0,
			"componentType":5126,
			"count":2372,
			"max":[
				23.51679801940918,
				1,
				1.522516131401062
			],
			"min":[
				0.14295926690101624,
				-1,
				-4.867763042449951
			],
			"type":"VEC3"
		},
		{
			"bufferView":1,
			"componentType":5126,
			"count":2372,
			"type":"VEC3"
		},
		{
			"bufferView":2,
			"componentType":5126,
			"count":2372,
			"type":"VEC2"
		},
		{
			"bufferView":3,
			"componentType":5123,
			"count":7044,
			"type":"SCALAR"
		},
		{
			"bufferView":4,
			"componentType":5126,
			"count":7980,
			"max":[
				57.955684661865234,
				1,
				1.7726948261260986
			],
			"min":[
				0.26447463035583496,
				-1,
				-5.218012809753418
			],
			"type":"VEC3"
		},
		{
			"bufferView":5,
			"componentType":5126,
			"count":7980,
			"type":"VEC3"
		},
		{
			"bufferView":6,
			"componentType":5126,
			"count":7980,
			"type":"VEC2"
		},
		{
			"bufferView":7,
			"componentType":5123,
			"count":23688,
			"type":"SCALAR"
		},
		{
			"bufferView":8,
			"componentType":5126,
			"count":3768,
			"max":[
				-0.15134994685649872,
				0.37776505947113037,
				7.466383955545552e-09
			],
			"min":[
				-0.37992238998413086,
				-0.17081095278263092,
				-0.5
			],
			"type":"VEC3"
		},
		{
			"bufferView":9,
			"componentType":5126,
			"count":3768,
			"type":"VEC3"
		},
		{
			"bufferView":10,
			"componentType":5123,
			"count":3768,
			"normalized":true,
			"type":"VEC4"
		},
		{
			"bufferView":11,
			"componentType":5123,
			"count":3768,
			"normalized":true,
			"type":"VEC4"
		},
		{
			"bufferView":12,
			"componentType":5123,
			"count":7752,
			"type":"SCALAR"
		},
		{
			"bufferView":13,
			"componentType":5126,
			"count":1302270,
			"max":[
				2813.739501953125,
				4007.8447265625,
				-6932.6025390625
			],
			"min":[
				2648.621826171875,
				3998.181640625,
				-7121.1103515625
			],
			"type":"VEC3"
		},
		{
			"bufferView":14,
			"componentType":5126,
			"count":1302270,
			"type":"VEC3"
		},
		{
			"bufferView":15,
			"componentType":5125,
			"count":1302960,
			"type":"SCALAR"
		}
	],
	"bufferViews":[
		{
			"buffer":0,
			"byteLength":28464,
			"byteOffset":0,
			"target":34962
		},
		{
			"buffer":0,
			"byteLength":28464,
			"byteOffset":28464,
			"target":34962
		},
		{
			"buffer":0,
			"byteLength":18976,
			"byteOffset":56928,
			"target":34962
		},
		{
			"buffer":0,
			"byteLength":14088,
			"byteOffset":75904,
			"target":34963
		},
		{
			"buffer":0,
			"byteLength":95760,
			"byteOffset":89992,
			"target":34962
		},
		{
			"buffer":0,
			"byteLength":95760,
			"byteOffset":185752,
			"target":34962
		},
		{
			"buffer":0,
			"byteLength":63840,
			"byteOffset":281512,
			"target":34962
		},
		{
			"buffer":0,
			"byteLength":47376,
			"byteOffset":345352,
			"target":34963
		},
		{
			"buffer":0,
			"byteLength":45216,
			"byteOffset":392728,
			"target":34962
		},
		{
			"buffer":0,
			"byteLength":45216,
			"byteOffset":437944,
			"target":34962
		},
		{
			"buffer":0,
			"byteLength":30144,
			"byteOffset":483160,
			"target":34962
		},
		{
			"buffer":0,
			"byteLength":30144,
			"byteOffset":513304,
			"target":34962
		},
		{
			"buffer":0,
			"byteLength":15504,
			"byteOffset":543448,
			"target":34963
		},
		{
			"buffer":0,
			"byteLength":15627240,
			"byteOffset":558952,
			"target":34962
		},
		{
			"buffer":0,
			"byteLength":15627240,
			"byteOffset":16186192,
			"target":34962
		},
		{
			"buffer":0,
			"byteLength":5211840,
			"byteOffset":31813432,
			"target":34963
		}
	],
	"buffers":[
		{
			"byteLength":37025272,
			"uri":"NORCAT_HDMap.bin"
		}
	]
}
