{
	"asset":{
		"generator":"Khronos glTF Blender I/O v4.3.47",
		"version":"2.0"
	},
	"extensionsUsed":[
		"KHR_materials_specular"
	],
	"scene":0,
	"scenes":[
		{
			"name":"Scene",
			"nodes":[
				0
			]
		}
	],
	"nodes":[
		{
			"mesh":0,
			"name":"Cat777",
			"scale":[
				0.0010000000474974513,
				0.0010000000474974513,
				0.0010000000474974513
			],
			"translation":[
				-8.740753401070833e-06,
				2.6822672225534916e-06,
				-2.1079787984490395e-05
			]
		}
	],
	"materials":[
		{
			"alphaMode":"BLEND",
			"doubleSided":true,
			"extensions":{
				"KHR_materials_specular":{
					"specularColorFactor":[
						0.8999999761581421,
						0.8999999761581421,
						0.8999999761581421
					]
				}
			},
			"name":"Material #4053",
			"pbrMetallicRoughness":{
				"baseColorTexture":{
					"index":0
				},
				"metallicFactor":0,
				"metallicRoughnessTexture":{
					"index":1
				}
			}
		},
		{
			"doubleSided":true,
			"extensions":{
				"KHR_materials_specular":{
					"specularColorFactor":[
						0.8999999761581421,
						0.8999999761581421,
						0.8999999761581421
					]
				}
			},
			"name":"Material #4049",
			"pbrMetallicRoughness":{
				"baseColorTexture":{
					"index":2
				},
				"metallicFactor":0,
				"metallicRoughnessTexture":{
					"index":3
				}
			}
		},
		{
			"doubleSided":true,
			"extensions":{
				"KHR_materials_specular":{
					"specularColorFactor":[
						0.8999999761581421,
						0.8999999761581421,
						0.8999999761581421
					]
				}
			},
			"name":"Material #4051",
			"pbrMetallicRoughness":{
				"baseColorTexture":{
					"index":4
				},
				"metallicFactor":0,
				"roughnessFactor":0.8999999761581421
			}
		},
		{
			"doubleSided":true,
			"extensions":{
				"KHR_materials_specular":{
					"specularColorFactor":[
						0.8999999761581421,
						0.8999999761581421,
						0.8999999761581421
					]
				}
			},
			"name":"Material #4043",
			"pbrMetallicRoughness":{
				"baseColorTexture":{
					"index":5
				},
				"metallicFactor":0,
				"roughnessFactor":0.8999999761581421
			}
		},
		{
			"doubleSided":true,
			"extensions":{
				"KHR_materials_specular":{
					"specularColorFactor":[
						0.8999999761581421,
						0.8999999761581421,
						0.8999999761581421
					]
				}
			},
			"name":"Material #4046",
			"pbrMetallicRoughness":{
				"baseColorTexture":{
					"index":6
				},
				"metallicFactor":0,
				"metallicRoughnessTexture":{
					"index":7
				}
			}
		},
		{
			"doubleSided":true,
			"extensions":{
				"KHR_materials_specular":{
					"specularColorFactor":[
						0.8999999761581421,
						0.8999999761581421,
						0.8999999761581421
					]
				}
			},
			"name":"Material #4041",
			"pbrMetallicRoughness":{
				"baseColorTexture":{
					"index":8
				},
				"metallicFactor":0,
				"roughnessFactor":0.8999999761581421
			}
		},
		{
			"doubleSided":true,
			"extensions":{
				"KHR_materials_specular":{
					"specularColorFactor":[
						0.8999999761581421,
						0.8999999761581421,
						0.8999999761581421
					]
				}
			},
			"name":"Material #4048",
			"pbrMetallicRoughness":{
				"baseColorTexture":{
					"index":9
				},
				"metallicFactor":0,
				"roughnessFactor":0.8999999761581421
			}
		},
		{
			"doubleSided":true,
			"extensions":{
				"KHR_materials_specular":{
					"specularColorFactor":[
						0.8999999761581421,
						0.8999999761581421,
						0.8999999761581421
					]
				}
			},
			"name":"Material #4045",
			"pbrMetallicRoughness":{
				"baseColorTexture":{
					"index":10
				},
				"metallicFactor":0,
				"metallicRoughnessTexture":{
					"index":11
				}
			}
		},
		{
			"doubleSided":true,
			"extensions":{
				"KHR_materials_specular":{
					"specularColorFactor":[
						0.8999999761581421,
						0.8999999761581421,
						0.8999999761581421
					]
				}
			},
			"name":"Material #4040",
			"pbrMetallicRoughness":{
				"baseColorTexture":{
					"index":12
				},
				"metallicFactor":0,
				"roughnessFactor":0.8999999761581421
			}
		}
	],
	"meshes":[
		{
			"name":"Part08",
			"primitives":[
				{
					"attributes":{
						"POSITION":0,
						"NORMAL":1
					},
					"indices":2,
					"material":0
				},
				{
					"attributes":{
						"POSITION":3,
						"NORMAL":4
					},
					"indices":5,
					"material":1
				},
				{
					"attributes":{
						"POSITION":6,
						"NORMAL":7
					},
					"indices":8,
					"material":2
				},
				{
					"attributes":{
						"POSITION":9,
						"NORMAL":10
					},
					"indices":11,
					"material":3
				},
				{
					"attributes":{
						"POSITION":12,
						"NORMAL":13
					},
					"indices":14,
					"material":4
				},
				{
					"attributes":{
						"POSITION":15,
						"NORMAL":16
					},
					"indices":17,
					"material":5
				},
				{
					"attributes":{
						"POSITION":18,
						"NORMAL":19
					},
					"indices":20,
					"material":6
				},
				{
					"attributes":{
						"POSITION":21,
						"NORMAL":22
					},
					"indices":23,
					"material":7
				},
				{
					"attributes":{
						"POSITION":24,
						"NORMAL":25
					},
					"indices":26,
					"material":8
				}
			]
		}
	],
	"textures":[
		{
			"sampler":0,
			"source":0
		},
		{
			"sampler":0,
			"source":1
		},
		{
			"sampler":0,
			"source":2
		},
		{
			"sampler":0,
			"source":3
		},
		{
			"sampler":0,
			"source":4
		},
		{
			"sampler":0,
			"source":5
		},
		{
			"sampler":0,
			"source":6
		},
		{
			"sampler":0,
			"source":7
		},
		{
			"sampler":0,
			"source":8
		},
		{
			"sampler":0,
			"source":9
		},
		{
			"sampler":0,
			"source":10
		},
		{
			"sampler":0,
			"source":11
		},
		{
			"sampler":0,
			"source":12
		}
	],
	"images":[
		{
			"mimeType":"image/png",
			"name":"Glass_Defuse-Glass_Alpha",
			"uri":"Glass_Defuse-Glass_Alpha.png"
		},
		{
			"mimeType":"image/png",
			"name":"Glass_Normal",
			"uri":"Glass_Normal.png"
		},
		{
			"mimeType":"image/png",
			"name":"Stuff_Defuse",
			"uri":"Stuff_Defuse.png"
		},
		{
			"mimeType":"image/png",
			"name":"Stuff_Normal",
			"uri":"Stuff_Normal.png"
		},
		{
			"mimeType":"image/png",
			"name":"Stuff2_Defuse",
			"uri":"Stuff2_Defuse.png"
		},
		{
			"mimeType":"image/png",
			"name":"Main2_Defuse",
			"uri":"Main2_Defuse.png"
		},
		{
			"mimeType":"image/png",
			"name":"Logo_Defuse",
			"uri":"Logo_Defuse.png"
		},
		{
			"mimeType":"image/png",
			"name":"Logo_Normal",
			"uri":"Logo_Normal.png"
		},
		{
			"mimeType":"image/png",
			"name":"Main_Defuse",
			"uri":"Main_Defuse.png"
		},
		{
			"mimeType":"image/png",
			"name":"SteelGuide_Defuse",
			"uri":"SteelGuide_Defuse.png"
		},
		{
			"mimeType":"image/png",
			"name":"Floor_Defuse",
			"uri":"Floor_Defuse.png"
		},
		{
			"mimeType":"image/png",
			"name":"Floor_Normal",
			"uri":"Floor_Normal.png"
		},
		{
			"mimeType":"image/png",
			"name":"Tire_Defuse",
			"uri":"Tire_Defuse.png"
		}
	],
	"accessors":[
		{
			"bufferView":0,
			"componentType":5126,
			"count":28,
			"max":[
				1037.809326171875,
				2373.051513671875,
				1816.62255859375
			],
			"min":[
				435.372314453125,
				2011.03955078125,
				1124.205078125
			],
			"type":"VEC3"
		},
		{
			"bufferView":1,
			"componentType":5126,
			"count":28,
			"type":"VEC3"
		},
		{
			"bufferView":2,
			"componentType":5123,
			"count":42,
			"type":"SCALAR"
		},
		{
			"bufferView":3,
			"componentType":5126,
			"count":854,
			"max":[
				1588.841064453125,
				2393.6435546875,
				2046.13525390625
			],
			"min":[
				-1585.74169921875,
				1424.66650390625,
				623.82080078125
			],
			"type":"VEC3"
		},
		{
			"bufferView":4,
			"componentType":5126,
			"count":854,
			"type":"VEC3"
		},
		{
			"bufferView":5,
			"componentType":5123,
			"count":2184,
			"type":"SCALAR"
		},
		{
			"bufferView":6,
			"componentType":5126,
			"count":242,
			"max":[
				1360.6671142578125,
				2031.1787109375,
				723.61181640625
			],
			"min":[
				-1357.43408203125,
				1683.1591796875,
				642.322265625
			],
			"type":"VEC3"
		},
		{
			"bufferView":7,
			"componentType":5126,
			"count":242,
			"type":"VEC3"
		},
		{
			"bufferView":8,
			"componentType":5123,
			"count":552,
			"type":"SCALAR"
		},
		{
			"bufferView":9,
			"componentType":5126,
			"count":1513,
			"max":[
				1437.8609619140625,
				1609.456298828125,
				2444.517822265625
			],
			"min":[
				-1434.291015625,
				512.6865234375,
				-2052.732421875
			],
			"type":"VEC3"
		},
		{
			"bufferView":10,
			"componentType":5126,
			"count":1513,
			"type":"VEC3"
		},
		{
			"bufferView":11,
			"componentType":5123,
			"count":3000,
			"type":"SCALAR"
		},
		{
			"bufferView":12,
			"componentType":5126,
			"count":1083,
			"max":[
				1429.996826171875,
				2723.119140625,
				2552.18408203125
			],
			"min":[
				-1426.36376953125,
				573.017578125,
				-2489.0693359375
			],
			"type":"VEC3"
		},
		{
			"bufferView":13,
			"componentType":5126,
			"count":1083,
			"type":"VEC3"
		},
		{
			"bufferView":14,
			"componentType":5123,
			"count":1908,
			"type":"SCALAR"
		},
		{
			"bufferView":15,
			"componentType":5126,
			"count":5369,
			"max":[
				1454.7830810546875,
				2723.119140625,
				2518.759521484375
			],
			"min":[
				-1457.36083984375,
				305.90362548828125,
				-2867.443359375
			],
			"type":"VEC3"
		},
		{
			"bufferView":16,
			"componentType":5126,
			"count":5369,
			"type":"VEC3"
		},
		{
			"bufferView":17,
			"componentType":5123,
			"count":11877,
			"type":"SCALAR"
		},
		{
			"bufferView":18,
			"componentType":5126,
			"count":2422,
			"max":[
				1592.801513671875,
				2435.20458984375,
				2510.256103515625
			],
			"min":[
				-1589.26806640625,
				686.0452270507812,
				-866.54296875
			],
			"type":"VEC3"
		},
		{
			"bufferView":19,
			"componentType":5126,
			"count":2422,
			"type":"VEC3"
		},
		{
			"bufferView":20,
			"componentType":5123,
			"count":4776,
			"type":"SCALAR"
		},
		{
			"bufferView":21,
			"componentType":5126,
			"count":113,
			"max":[
				1410.9661865234375,
				1685.073974609375,
				2501.7265625
			],
			"min":[
				-1391.19384765625,
				634.5007934570312,
				513.48193359375
			],
			"type":"VEC3"
		},
		{
			"bufferView":22,
			"componentType":5126,
			"count":113,
			"type":"VEC3"
		},
		{
			"bufferView":23,
			"componentType":5123,
			"count":246,
			"type":"SCALAR"
		},
		{
			"bufferView":24,
			"componentType":5126,
			"count":18328,
			"max":[
				1417.3592529296875,
				1428.0413818359375,
				1754.79296875
			],
			"min":[
				-1415.61865234375,
				-1.68603515625,
				-2398.6435546875
			],
			"type":"VEC3"
		},
		{
			"bufferView":25,
			"componentType":5126,
			"count":18328,
			"type":"VEC3"
		},
		{
			"bufferView":26,
			"componentType":5123,
			"count":35856,
			"type":"SCALAR"
		}
	],
	"bufferViews":[
		{
			"buffer":0,
			"byteLength":336,
			"byteOffset":0,
			"target":34962
		},
		{
			"buffer":0,
			"byteLength":336,
			"byteOffset":336,
			"target":34962
		},
		{
			"buffer":0,
			"byteLength":84,
			"byteOffset":672,
			"target":34963
		},
		{
			"buffer":0,
			"byteLength":10248,
			"byteOffset":756,
			"target":34962
		},
		{
			"buffer":0,
			"byteLength":10248,
			"byteOffset":11004,
			"target":34962
		},
		{
			"buffer":0,
			"byteLength":4368,
			"byteOffset":21252,
			"target":34963
		},
		{
			"buffer":0,
			"byteLength":2904,
			"byteOffset":25620,
			"target":34962
		},
		{
			"buffer":0,
			"byteLength":2904,
			"byteOffset":28524,
			"target":34962
		},
		{
			"buffer":0,
			"byteLength":1104,
			"byteOffset":31428,
			"target":34963
		},
		{
			"buffer":0,
			"byteLength":18156,
			"byteOffset":32532,
			"target":34962
		},
		{
			"buffer":0,
			"byteLength":18156,
			"byteOffset":50688,
			"target":34962
		},
		{
			"buffer":0,
			"byteLength":6000,
			"byteOffset":68844,
			"target":34963
		},
		{
			"buffer":0,
			"byteLength":12996,
			"byteOffset":74844,
			"target":34962
		},
		{
			"buffer":0,
			"byteLength":12996,
			"byteOffset":87840,
			"target":34962
		},
		{
			"buffer":0,
			"byteLength":3816,
			"byteOffset":100836,
			"target":34963
		},
		{
			"buffer":0,
			"byteLength":64428,
			"byteOffset":104652,
			"target":34962
		},
		{
			"buffer":0,
			"byteLength":64428,
			"byteOffset":169080,
			"target":34962
		},
		{
			"buffer":0,
			"byteLength":23754,
			"byteOffset":233508,
			"target":34963
		},
		{
			"buffer":0,
			"byteLength":29064,
			"byteOffset":257264,
			"target":34962
		},
		{
			"buffer":0,
			"byteLength":29064,
			"byteOffset":286328,
			"target":34962
		},
		{
			"buffer":0,
			"byteLength":9552,
			"byteOffset":315392,
			"target":34963
		},
		{
			"buffer":0,
			"byteLength":1356,
			"byteOffset":324944,
			"target":34962
		},
		{
			"buffer":0,
			"byteLength":1356,
			"byteOffset":326300,
			"target":34962
		},
		{
			"buffer":0,
			"byteLength":492,
			"byteOffset":327656,
			"target":34963
		},
		{
			"buffer":0,
			"byteLength":219936,
			"byteOffset":328148,
			"target":34962
		},
		{
			"buffer":0,
			"byteLength":219936,
			"byteOffset":548084,
			"target":34962
		},
		{
			"buffer":0,
			"byteLength":71712,
			"byteOffset":768020,
			"target":34963
		}
	],
	"samplers":[
		{
			"magFilter":9729,
			"minFilter":9987
		}
	],
	"buffers":[
		{
			"byteLength":839732,
			"uri":"Truck_1.bin"
		}
	]
}
